<?xml version="1.0" encoding="utf-8"?>
<!-- Generator: Adobe Illustrator 18.1.1, SVG Export Plug-In . SVG Version: 6.00 Build 0)  -->
<!DOCTYPE svg PUBLIC "-//W3C//DTD SVG 1.1//EN" "http://www.w3.org/Graphics/SVG/1.1/DTD/svg11.dtd">
<svg version="1.1" id="Layer_1" xmlns="http://www.w3.org/2000/svg" xmlns:xlink="http://www.w3.org/1999/xlink" x="0px" y="0px"
	 width="170px" height="160px" viewBox="0 0 170 160" enable-background="new 0 0 170 160" xml:space="preserve">
<path fill="none" stroke="#000000" stroke-width="25" stroke-linejoin="round" stroke-miterlimit="10" d="M-49.7,320.7"/>
<g>
	<g>
		<path id="speech-bubble-icon" fill="#191919" d="M65.2,50.9C41.2,56.7,23.8,42,23.8,26.2C23.8,11,38.6,0,54.9,0
			c16.4,0,31.1,11,31.1,26.2c0,5.4-1.9,10.6-5.3,14.7c-0.1,4.8,2.6,11.6,5.2,16.6C79.1,56.3,69.5,53.6,65.2,50.9z"/>
		<circle fill="#191919" cx="114.3" cy="25.4" r="7.6"/>
		<path fill="#191919" d="M102.3,73.6c-0.9-2.5-3.4-4.2-6-4.2H75.1c-2.7,0-5.1,1.7-6,4.2c-0.9,2.5-0.2,5.4,1.8,7.1l10.6,9.1
			c1.2,1.1,2.7,1.6,4.2,1.6c1.5,0,3-0.5,4.2-1.6l10.6-9.1C102.5,79,103.2,76.2,102.3,73.6z"/>
		<path fill="#191919" d="M108.1,95.1c-2,1.3-4.3,2.1-6.8,2.1c-6.7,0-12.2-5.5-12.2-12.2h-0.3h-6.2h-0.3c0,6.7-5.5,12.2-12.2,12.2
			c-2.4,0-4.8-0.7-6.8-2.1l-3.6,5.4c3.1,2.1,6.7,3.2,10.4,3.2c6.5,0,12.2-3.3,15.5-8.3c3.3,5,9,8.3,15.5,8.3c3.7,0,7.3-1.1,10.4-3.2
			L108.1,95.1z"/>
	</g>
	<g>
		<path fill="#191919" d="M18.9,150.3h-6v-13.8L0,115.5h6.4l9.5,15.9l9.5-15.9h6.4l-13,21.1V150.3z"/>
		<path fill="#191919" d="M50.1,150.3H45v-3.5c-2.2,2.6-5.1,3.9-8.8,3.9c-2.8,0-5-0.8-6.9-2.3c-1.8-1.6-2.7-3.6-2.7-6.3
			c0-2.6,1-4.6,2.9-5.9c1.9-1.3,4.5-1.9,7.8-1.9h7.2v-1c0-3.5-2-5.3-5.9-5.3c-2.5,0-5,0.9-7.7,2.7l-2.5-3.5c3.2-2.6,6.9-3.8,11-3.8
			c3.1,0,5.7,0.8,7.7,2.4c2,1.6,3,4.1,3,7.5V150.3z M44.5,140.5v-2.2h-6.3c-4,0-6,1.3-6,3.8c0,1.3,0.5,2.3,1.5,3c1,0.7,2.4,1,4.2,1
			c1.8,0,3.3-0.5,4.7-1.5C43.9,143.5,44.5,142.2,44.5,140.5z"/>
		<path fill="#191919" d="M69.6,123.4c3.6,0,6.6,1.2,9.1,3.7c2.5,2.5,3.8,5.7,3.8,9.8c0,4.1-1.3,7.4-3.8,10
			c-2.5,2.6-5.4,3.8-8.8,3.8c-3.3,0-6.3-1.5-9-4.4V160h-5.6v-36.2H61v4.6C63.2,125.1,66,123.4,69.6,123.4z M60.9,137.1
			c0,2.5,0.8,4.6,2.3,6.2c1.5,1.6,3.4,2.4,5.6,2.4c2.2,0,4.1-0.8,5.7-2.4c1.6-1.6,2.4-3.7,2.4-6.2c0-2.5-0.8-4.7-2.4-6.3
			c-1.6-1.7-3.5-2.5-5.7-2.5c-2.2,0-4.1,0.8-5.6,2.5C61.6,132.5,60.9,134.6,60.9,137.1z"/>
		<path fill="#191919" d="M105.3,142.4c0,2.5-0.9,4.5-2.7,6.1c-1.8,1.5-4.2,2.3-7,2.3c-1.9,0-3.9-0.3-6-1c-2.1-0.7-3.9-1.7-5.5-2.9
			l2.7-4.3c3.1,2.3,6.1,3.5,9,3.5c1.3,0,2.3-0.3,3-0.9c0.7-0.6,1.1-1.3,1.1-2.2c0-1.3-1.8-2.5-5.3-3.6c-0.3-0.1-0.5-0.2-0.6-0.2
			c-5.5-1.5-8.3-4-8.3-7.5c0-2.5,1-4.4,2.9-5.9c1.9-1.5,4.4-2.2,7.5-2.2c3.1,0,5.9,0.9,8.7,2.7l-2.1,4.1c-2.2-1.4-4.5-2.1-7-2.1
			c-1.3,0-2.4,0.2-3.2,0.7c-0.8,0.5-1.2,1.2-1.2,2.2c0,0.9,0.4,1.5,1.3,1.9c0.6,0.3,1.4,0.6,2.5,0.8c1.1,0.3,2,0.5,2.9,0.8
			c0.8,0.3,1.6,0.6,2.4,0.9c0.8,0.3,1.6,0.8,2.5,1.4C104.4,138,105.3,139.9,105.3,142.4z"/>
		<path fill="#191919" d="M116,128.3v13.5c0,1.3,0.3,2.3,1,3c0.7,0.7,1.6,1.1,2.8,1.1c1.2,0,2.3-0.6,3.4-1.7l2.3,3.9
			c-2,1.8-4.1,2.6-6.5,2.6c-2.4,0-4.4-0.8-6.1-2.5c-1.7-1.6-2.5-3.9-2.5-6.7v-13.3h-3.3v-4.5h3.3v-8.3h5.6v8.3h7v4.5H116z"/>
		<path fill="#191919" d="M152.2,139.5h-20.8c0.1,1.9,1,3.5,2.6,4.7c1.6,1.2,3.5,1.8,5.6,1.8c3.3,0,5.8-1,7.6-3.1l3.2,3.5
			c-2.9,3-6.6,4.4-11.2,4.4c-3.7,0-6.9-1.2-9.5-3.7c-2.6-2.5-3.9-5.8-3.9-10c0-4.2,1.3-7.5,4-9.9c2.7-2.5,5.8-3.7,9.4-3.7
			c3.6,0,6.7,1.1,9.2,3.3c2.5,2.2,3.8,5.2,3.8,9V139.5z M131.4,135.1h15.2c0-2.2-0.7-3.9-2.1-5.1c-1.4-1.2-3.1-1.8-5.2-1.8
			c-2,0-3.9,0.6-5.5,1.9C132.2,131.3,131.4,133,131.4,135.1z"/>
		<path fill="#191919" d="M169.7,129c-2.8,0-4.8,0.9-6.2,2.7c-1.4,1.8-2.1,4.2-2.1,7.2v11.4h-5.6v-26.5h5.6v5.3
			c0.9-1.7,2.1-3,3.7-4.1c1.5-1.1,3.2-1.6,4.9-1.6l0,5.6C169.9,129,169.8,129,169.7,129z"/>
	</g>
</g>
</svg>
